<mxfile host="app.diagrams.net" modified="2023-11-22T14:25:00.800Z" agent="Mozilla/5.0 (Windows NT 10.0; Win64; x64) AppleWebKit/537.36 (KHTML, like Gecko) Chrome/119.0.0.0 Safari/537.36" etag="WtcL1gertmXNNTxV6iK9" version="22.1.3" type="github">
  <diagram name="Page-1" id="0783ab3e-0a74-02c8-0abd-f7b4e66b4bec">
    <mxGraphModel dx="3316" dy="1930" grid="1" gridSize="10" guides="1" tooltips="1" connect="1" arrows="1" fold="1" page="1" pageScale="1" pageWidth="850" pageHeight="1100" background="none" math="0" shadow="0">
      <root>
        <mxCell id="0" />
        <mxCell id="1" parent="0" />
        <mxCell id="fiwsSdyqOs6rsyfke5sV-4" value="Check Balance" style="ellipse;whiteSpace=wrap;html=1;" parent="1" vertex="1">
          <mxGeometry x="-690" y="-500" width="120" height="80" as="geometry" />
        </mxCell>
        <mxCell id="fiwsSdyqOs6rsyfke5sV-5" value="" style="endArrow=none;html=1;rounded=0;entryX=0;entryY=0.5;entryDx=0;entryDy=0;exitX=1;exitY=0.5;exitDx=0;exitDy=0;" parent="1" source="6iGNeCmWqQAIdZ_xOtgq-26" target="fiwsSdyqOs6rsyfke5sV-4" edge="1">
          <mxGeometry width="50" height="50" relative="1" as="geometry">
            <mxPoint x="-680" y="-380" as="sourcePoint" />
            <mxPoint x="470" y="49.47" as="targetPoint" />
            <Array as="points" />
          </mxGeometry>
        </mxCell>
        <mxCell id="fiwsSdyqOs6rsyfke5sV-6" value="Transacting Checking of Balance" style="edgeLabel;html=1;align=center;verticalAlign=bottom;resizable=0;points=[];fontSize=12;" parent="fiwsSdyqOs6rsyfke5sV-5" vertex="1" connectable="0">
          <mxGeometry x="-0.0677" relative="1" as="geometry">
            <mxPoint x="-56" as="offset" />
          </mxGeometry>
        </mxCell>
        <mxCell id="fiwsSdyqOs6rsyfke5sV-9" value="Deposit Funds" style="ellipse;whiteSpace=wrap;html=1;" parent="1" vertex="1">
          <mxGeometry x="-260" y="-350" width="120" height="80" as="geometry" />
        </mxCell>
        <mxCell id="fiwsSdyqOs6rsyfke5sV-10" value="" style="endArrow=none;html=1;rounded=0;exitX=1;exitY=0.5;exitDx=0;exitDy=0;entryX=0;entryY=0.5;entryDx=0;entryDy=0;" parent="1" source="6iGNeCmWqQAIdZ_xOtgq-26" target="fiwsSdyqOs6rsyfke5sV-9" edge="1">
          <mxGeometry width="50" height="50" relative="1" as="geometry">
            <mxPoint x="-680" y="-360" as="sourcePoint" />
            <mxPoint x="210" y="-510" as="targetPoint" />
            <Array as="points">
              <mxPoint x="-480" y="-390" />
            </Array>
          </mxGeometry>
        </mxCell>
        <mxCell id="fiwsSdyqOs6rsyfke5sV-11" value="Cash In via Supermarkets, &lt;br&gt;Pawnshops, or Remittance stores.&amp;nbsp;" style="edgeLabel;html=1;align=center;verticalAlign=bottom;resizable=0;points=[];fontSize=12;" parent="fiwsSdyqOs6rsyfke5sV-10" vertex="1" connectable="0">
          <mxGeometry x="0.0052" relative="1" as="geometry">
            <mxPoint x="40" y="-10" as="offset" />
          </mxGeometry>
        </mxCell>
        <mxCell id="fiwsSdyqOs6rsyfke5sV-18" value="" style="endArrow=none;html=1;rounded=0;entryX=1;entryY=0.5;entryDx=0;entryDy=0;exitX=0;exitY=0.5;exitDx=0;exitDy=0;" parent="1" source="fiwsSdyqOs6rsyfke5sV-9" target="6iGNeCmWqQAIdZ_xOtgq-26" edge="1">
          <mxGeometry width="50" height="50" relative="1" as="geometry">
            <mxPoint x="300" y="-360" as="sourcePoint" />
            <mxPoint x="-680" y="-340" as="targetPoint" />
            <Array as="points">
              <mxPoint x="-520" y="-330" />
            </Array>
          </mxGeometry>
        </mxCell>
        <mxCell id="fiwsSdyqOs6rsyfke5sV-19" value="&lt;font style=&quot;font-size: 12px;&quot;&gt;Cash In via &lt;br&gt;Deposit Machines&lt;/font&gt;" style="edgeLabel;html=1;align=center;verticalAlign=middle;resizable=0;points=[];" parent="fiwsSdyqOs6rsyfke5sV-18" vertex="1" connectable="0">
          <mxGeometry x="0.0239" y="1" relative="1" as="geometry">
            <mxPoint x="56" y="-11" as="offset" />
          </mxGeometry>
        </mxCell>
        <mxCell id="fiwsSdyqOs6rsyfke5sV-20" value="" style="endArrow=none;html=1;rounded=0;exitX=1;exitY=0.5;exitDx=0;exitDy=0;entryX=0;entryY=0.5;entryDx=0;entryDy=0;" parent="1" source="6iGNeCmWqQAIdZ_xOtgq-26" target="fiwsSdyqOs6rsyfke5sV-9" edge="1">
          <mxGeometry width="50" height="50" relative="1" as="geometry">
            <mxPoint x="-700" y="-270" as="sourcePoint" />
            <mxPoint x="220" y="-350" as="targetPoint" />
            <Array as="points">
              <mxPoint x="-500" y="-290" />
            </Array>
          </mxGeometry>
        </mxCell>
        <mxCell id="fiwsSdyqOs6rsyfke5sV-21" value="Cash In via&amp;nbsp;&lt;br&gt;Bank Transfers" style="edgeLabel;html=1;align=center;verticalAlign=middle;resizable=0;points=[];" parent="fiwsSdyqOs6rsyfke5sV-20" vertex="1" connectable="0">
          <mxGeometry x="0.0682" y="1" relative="1" as="geometry">
            <mxPoint x="-2" y="7" as="offset" />
          </mxGeometry>
        </mxCell>
        <mxCell id="fiwsSdyqOs6rsyfke5sV-22" value="" style="endArrow=none;html=1;rounded=0;entryX=0;entryY=0.5;entryDx=0;entryDy=0;" parent="1" target="fiwsSdyqOs6rsyfke5sV-9" edge="1">
          <mxGeometry width="50" height="50" relative="1" as="geometry">
            <mxPoint x="-820" y="-240" as="sourcePoint" />
            <mxPoint x="230" y="-290" as="targetPoint" />
            <Array as="points">
              <mxPoint x="-500" y="-230" />
            </Array>
          </mxGeometry>
        </mxCell>
        <mxCell id="fiwsSdyqOs6rsyfke5sV-23" value="Cash In via &lt;br&gt;Credit Cards" style="edgeLabel;html=1;align=center;verticalAlign=middle;resizable=0;points=[];" parent="fiwsSdyqOs6rsyfke5sV-22" vertex="1" connectable="0">
          <mxGeometry x="0.1077" y="-3" relative="1" as="geometry">
            <mxPoint x="-68" y="5" as="offset" />
          </mxGeometry>
        </mxCell>
        <mxCell id="fiwsSdyqOs6rsyfke5sV-25" value="" style="endArrow=none;html=1;rounded=0;exitX=1;exitY=0.5;exitDx=0;exitDy=0;entryX=0;entryY=0.5;entryDx=0;entryDy=0;" parent="1" source="6iGNeCmWqQAIdZ_xOtgq-26" target="fiwsSdyqOs6rsyfke5sV-9" edge="1">
          <mxGeometry width="50" height="50" relative="1" as="geometry">
            <mxPoint x="-680" y="-220" as="sourcePoint" />
            <mxPoint x="210" y="-230" as="targetPoint" />
            <Array as="points">
              <mxPoint x="-440" y="-170" />
            </Array>
          </mxGeometry>
        </mxCell>
        <mxCell id="fiwsSdyqOs6rsyfke5sV-26" value="&lt;font style=&quot;font-size: 12px;&quot;&gt;Cash In via&lt;br&gt;PayPal&lt;br&gt;&lt;/font&gt;" style="edgeLabel;html=1;align=center;verticalAlign=middle;resizable=0;points=[];" parent="fiwsSdyqOs6rsyfke5sV-25" vertex="1" connectable="0">
          <mxGeometry x="0.2722" y="-2" relative="1" as="geometry">
            <mxPoint x="-41" y="8" as="offset" />
          </mxGeometry>
        </mxCell>
        <mxCell id="fiwsSdyqOs6rsyfke5sV-27" value="Withdraw Funds" style="ellipse;whiteSpace=wrap;html=1;" parent="1" vertex="1">
          <mxGeometry x="-260" y="-120" width="120" height="80" as="geometry" />
        </mxCell>
        <mxCell id="fiwsSdyqOs6rsyfke5sV-28" value="" style="endArrow=none;html=1;rounded=0;entryX=0;entryY=0.5;entryDx=0;entryDy=0;exitX=1;exitY=0.5;exitDx=0;exitDy=0;" parent="1" source="6iGNeCmWqQAIdZ_xOtgq-26" target="fiwsSdyqOs6rsyfke5sV-27" edge="1">
          <mxGeometry width="50" height="50" relative="1" as="geometry">
            <mxPoint x="-740" y="-170" as="sourcePoint" />
            <mxPoint x="180" y="340" as="targetPoint" />
            <Array as="points">
              <mxPoint x="-600" y="-110" />
            </Array>
          </mxGeometry>
        </mxCell>
        <mxCell id="fiwsSdyqOs6rsyfke5sV-29" value="&lt;font style=&quot;font-size: 12px;&quot;&gt;Cash Out via&amp;nbsp;&lt;br&gt;ATM using&lt;br&gt;Gcash MasterCard&lt;br&gt;&lt;/font&gt;" style="edgeLabel;html=1;align=center;verticalAlign=middle;resizable=0;points=[];" parent="fiwsSdyqOs6rsyfke5sV-28" vertex="1" connectable="0">
          <mxGeometry x="0.0765" y="-2" relative="1" as="geometry">
            <mxPoint x="-71" y="-17" as="offset" />
          </mxGeometry>
        </mxCell>
        <mxCell id="fiwsSdyqOs6rsyfke5sV-31" value="" style="endArrow=none;html=1;rounded=0;exitX=0;exitY=0.5;exitDx=0;exitDy=0;entryX=1;entryY=0.5;entryDx=0;entryDy=0;" parent="1" source="fiwsSdyqOs6rsyfke5sV-27" target="6iGNeCmWqQAIdZ_xOtgq-26" edge="1">
          <mxGeometry width="50" height="50" relative="1" as="geometry">
            <mxPoint x="530" y="410" as="sourcePoint" />
            <mxPoint x="-770" y="-110" as="targetPoint" />
            <Array as="points">
              <mxPoint x="-650" y="-50" />
            </Array>
          </mxGeometry>
        </mxCell>
        <mxCell id="fiwsSdyqOs6rsyfke5sV-32" value="&lt;font style=&quot;font-size: 12px;&quot;&gt;Cash Out via&lt;br&gt;Gcash Partner&lt;br&gt;Outlets&lt;br&gt;&lt;/font&gt;" style="edgeLabel;html=1;align=center;verticalAlign=middle;resizable=0;points=[];" parent="fiwsSdyqOs6rsyfke5sV-31" vertex="1" connectable="0">
          <mxGeometry x="-0.087" relative="1" as="geometry">
            <mxPoint x="-63" as="offset" />
          </mxGeometry>
        </mxCell>
        <mxCell id="fiwsSdyqOs6rsyfke5sV-35" value="" style="endArrow=none;html=1;rounded=0;entryX=0;entryY=0.5;entryDx=0;entryDy=0;exitX=1;exitY=0.5;exitDx=0;exitDy=0;" parent="1" source="6iGNeCmWqQAIdZ_xOtgq-26" target="fiwsSdyqOs6rsyfke5sV-27" edge="1">
          <mxGeometry width="50" height="50" relative="1" as="geometry">
            <mxPoint x="-800" y="-60" as="sourcePoint" />
            <mxPoint x="-100" y="250" as="targetPoint" />
            <Array as="points">
              <mxPoint x="-690" y="10" />
            </Array>
          </mxGeometry>
        </mxCell>
        <mxCell id="fiwsSdyqOs6rsyfke5sV-36" value="&lt;font style=&quot;font-size: 12px;&quot;&gt;Cash Out via&lt;br&gt;Bank Transfers&lt;br&gt;&lt;/font&gt;" style="edgeLabel;html=1;align=center;verticalAlign=middle;resizable=0;points=[];" parent="fiwsSdyqOs6rsyfke5sV-35" vertex="1" connectable="0">
          <mxGeometry x="0.2394" relative="1" as="geometry">
            <mxPoint x="-90" y="23" as="offset" />
          </mxGeometry>
        </mxCell>
        <mxCell id="fiwsSdyqOs6rsyfke5sV-37" value="Gcash Software&lt;br&gt;Engineers" style="shape=umlActor;verticalLabelPosition=bottom;verticalAlign=top;html=1;outlineConnect=0;" parent="1" vertex="1">
          <mxGeometry x="-340" y="-730" width="30" height="60" as="geometry" />
        </mxCell>
        <mxCell id="fiwsSdyqOs6rsyfke5sV-38" value="System Maintenance" style="ellipse;whiteSpace=wrap;html=1;" parent="1" vertex="1">
          <mxGeometry x="-940" y="-600" width="120" height="80" as="geometry" />
        </mxCell>
        <mxCell id="fiwsSdyqOs6rsyfke5sV-44" value="Bug Fixes" style="ellipse;whiteSpace=wrap;html=1;" parent="1" vertex="1">
          <mxGeometry x="-1080" y="-740" width="120" height="80" as="geometry" />
        </mxCell>
        <mxCell id="fiwsSdyqOs6rsyfke5sV-45" value="" style="endArrow=none;html=1;rounded=0;exitX=1;exitY=0.5;exitDx=0;exitDy=0;entryX=0.5;entryY=0.5;entryDx=0;entryDy=0;entryPerimeter=0;" parent="1" source="6iGNeCmWqQAIdZ_xOtgq-7" target="fiwsSdyqOs6rsyfke5sV-37" edge="1">
          <mxGeometry width="50" height="50" relative="1" as="geometry">
            <mxPoint x="20" y="-480" as="sourcePoint" />
            <mxPoint x="70" y="-530" as="targetPoint" />
            <Array as="points" />
          </mxGeometry>
        </mxCell>
        <mxCell id="6iGNeCmWqQAIdZ_xOtgq-1" value="" style="endArrow=none;html=1;rounded=0;entryX=0.5;entryY=0.5;entryDx=0;entryDy=0;entryPerimeter=0;exitX=1;exitY=0.5;exitDx=0;exitDy=0;" parent="1" target="fiwsSdyqOs6rsyfke5sV-37" edge="1">
          <mxGeometry width="50" height="50" relative="1" as="geometry">
            <mxPoint x="-700" y="-700" as="sourcePoint" />
            <mxPoint x="-570" y="-670" as="targetPoint" />
            <Array as="points" />
          </mxGeometry>
        </mxCell>
        <mxCell id="6iGNeCmWqQAIdZ_xOtgq-4" value="Remote Diagnostics" style="ellipse;whiteSpace=wrap;html=1;" parent="1" vertex="1">
          <mxGeometry x="-810" y="-740" width="120" height="80" as="geometry" />
        </mxCell>
        <mxCell id="6iGNeCmWqQAIdZ_xOtgq-5" value="" style="endArrow=none;html=1;rounded=0;exitX=1;exitY=0.5;exitDx=0;exitDy=0;entryX=0;entryY=0.5;entryDx=0;entryDy=0;" parent="1" source="fiwsSdyqOs6rsyfke5sV-44" target="6iGNeCmWqQAIdZ_xOtgq-4" edge="1">
          <mxGeometry width="50" height="50" relative="1" as="geometry">
            <mxPoint x="-140" y="-570" as="sourcePoint" />
            <mxPoint x="-90" y="-620" as="targetPoint" />
          </mxGeometry>
        </mxCell>
        <mxCell id="69urwu36Ni8ePFmsJxC6-11" value="Remote Diagnostics&lt;br&gt;for Bug Fixes" style="edgeLabel;html=1;align=center;verticalAlign=bottom;resizable=0;points=[];" vertex="1" connectable="0" parent="6iGNeCmWqQAIdZ_xOtgq-5">
          <mxGeometry x="-0.0472" y="-2" relative="1" as="geometry">
            <mxPoint as="offset" />
          </mxGeometry>
        </mxCell>
        <mxCell id="6iGNeCmWqQAIdZ_xOtgq-6" value="" style="endArrow=none;html=1;rounded=0;exitX=1;exitY=0.5;exitDx=0;exitDy=0;entryX=0;entryY=0.5;entryDx=0;entryDy=0;" parent="1" source="fiwsSdyqOs6rsyfke5sV-38" target="6iGNeCmWqQAIdZ_xOtgq-4" edge="1">
          <mxGeometry width="50" height="50" relative="1" as="geometry">
            <mxPoint x="-390" y="-570" as="sourcePoint" />
            <mxPoint x="-340" y="-620" as="targetPoint" />
          </mxGeometry>
        </mxCell>
        <mxCell id="69urwu36Ni8ePFmsJxC6-12" value="Remote Diagnostics&lt;br&gt;for System Maintenance" style="edgeLabel;html=1;align=center;verticalAlign=middle;resizable=0;points=[];" vertex="1" connectable="0" parent="6iGNeCmWqQAIdZ_xOtgq-6">
          <mxGeometry x="0.0115" relative="1" as="geometry">
            <mxPoint x="55" as="offset" />
          </mxGeometry>
        </mxCell>
        <mxCell id="6iGNeCmWqQAIdZ_xOtgq-7" value="Software Updates" style="ellipse;whiteSpace=wrap;html=1;" parent="1" vertex="1">
          <mxGeometry x="-690" y="-600" width="120" height="80" as="geometry" />
        </mxCell>
        <mxCell id="6iGNeCmWqQAIdZ_xOtgq-8" value="" style="endArrow=none;html=1;rounded=0;exitX=1;exitY=0.5;exitDx=0;exitDy=0;entryX=0;entryY=0.5;entryDx=0;entryDy=0;" parent="1" source="fiwsSdyqOs6rsyfke5sV-38" target="6iGNeCmWqQAIdZ_xOtgq-7" edge="1">
          <mxGeometry width="50" height="50" relative="1" as="geometry">
            <mxPoint x="-130" y="-660" as="sourcePoint" />
            <mxPoint x="-80" y="-710" as="targetPoint" />
          </mxGeometry>
        </mxCell>
        <mxCell id="69urwu36Ni8ePFmsJxC6-15" value="Software Update&lt;br&gt;for System&lt;br&gt;Maintenance" style="edgeLabel;html=1;align=center;verticalAlign=top;resizable=0;points=[];" vertex="1" connectable="0" parent="6iGNeCmWqQAIdZ_xOtgq-8">
          <mxGeometry x="-0.0572" relative="1" as="geometry">
            <mxPoint as="offset" />
          </mxGeometry>
        </mxCell>
        <mxCell id="6iGNeCmWqQAIdZ_xOtgq-10" value="Gcash System &lt;br&gt;UP" style="ellipse;whiteSpace=wrap;html=1;" parent="1" vertex="1">
          <mxGeometry x="-1080" y="-390" width="120" height="80" as="geometry" />
        </mxCell>
        <mxCell id="6iGNeCmWqQAIdZ_xOtgq-11" value="Gcash System DOWN" style="ellipse;whiteSpace=wrap;html=1;" parent="1" vertex="1">
          <mxGeometry x="-1200" y="-480" width="120" height="80" as="geometry" />
        </mxCell>
        <mxCell id="6iGNeCmWqQAIdZ_xOtgq-12" value="" style="endArrow=none;html=1;rounded=0;entryX=0;entryY=0.5;entryDx=0;entryDy=0;exitX=0.5;exitY=0;exitDx=0;exitDy=0;" parent="1" source="6iGNeCmWqQAIdZ_xOtgq-11" target="fiwsSdyqOs6rsyfke5sV-44" edge="1">
          <mxGeometry width="50" height="50" relative="1" as="geometry">
            <mxPoint x="-1050" y="-480" as="sourcePoint" />
            <mxPoint x="-1000" y="-530" as="targetPoint" />
          </mxGeometry>
        </mxCell>
        <mxCell id="69urwu36Ni8ePFmsJxC6-8" value="Bug Fixes still&lt;br&gt;On Going" style="edgeLabel;html=1;align=center;verticalAlign=middle;resizable=0;points=[];" vertex="1" connectable="0" parent="6iGNeCmWqQAIdZ_xOtgq-12">
          <mxGeometry x="0.0022" y="-1" relative="1" as="geometry">
            <mxPoint y="-1" as="offset" />
          </mxGeometry>
        </mxCell>
        <mxCell id="6iGNeCmWqQAIdZ_xOtgq-13" value="" style="endArrow=none;html=1;rounded=0;entryX=0;entryY=0.5;entryDx=0;entryDy=0;exitX=0.5;exitY=0;exitDx=0;exitDy=0;" parent="1" source="6iGNeCmWqQAIdZ_xOtgq-11" target="fiwsSdyqOs6rsyfke5sV-38" edge="1">
          <mxGeometry width="50" height="50" relative="1" as="geometry">
            <mxPoint x="-1050" y="-480" as="sourcePoint" />
            <mxPoint x="-1000" y="-530" as="targetPoint" />
          </mxGeometry>
        </mxCell>
        <mxCell id="69urwu36Ni8ePFmsJxC6-9" value="System&amp;nbsp;&lt;br&gt;Maintenance&lt;br&gt;Still On&lt;br&gt;going" style="edgeLabel;html=1;align=center;verticalAlign=middle;resizable=0;points=[];" vertex="1" connectable="0" parent="6iGNeCmWqQAIdZ_xOtgq-13">
          <mxGeometry x="-0.2829" y="-1" relative="1" as="geometry">
            <mxPoint x="-12" y="-22" as="offset" />
          </mxGeometry>
        </mxCell>
        <mxCell id="6iGNeCmWqQAIdZ_xOtgq-14" value="" style="endArrow=none;html=1;rounded=0;entryX=0.5;entryY=1;entryDx=0;entryDy=0;exitX=0.5;exitY=0;exitDx=0;exitDy=0;" parent="1" source="6iGNeCmWqQAIdZ_xOtgq-10" target="fiwsSdyqOs6rsyfke5sV-44" edge="1">
          <mxGeometry width="50" height="50" relative="1" as="geometry">
            <mxPoint x="-1050" y="-480" as="sourcePoint" />
            <mxPoint x="-1000" y="-530" as="targetPoint" />
          </mxGeometry>
        </mxCell>
        <mxCell id="69urwu36Ni8ePFmsJxC6-7" value="Bug Fixes&lt;br&gt;done" style="edgeLabel;html=1;align=center;verticalAlign=middle;resizable=0;points=[];" vertex="1" connectable="0" parent="6iGNeCmWqQAIdZ_xOtgq-14">
          <mxGeometry x="-0.4166" y="2" relative="1" as="geometry">
            <mxPoint as="offset" />
          </mxGeometry>
        </mxCell>
        <mxCell id="6iGNeCmWqQAIdZ_xOtgq-15" value="" style="endArrow=none;html=1;rounded=0;entryX=0;entryY=0.5;entryDx=0;entryDy=0;exitX=0.5;exitY=0;exitDx=0;exitDy=0;" parent="1" source="6iGNeCmWqQAIdZ_xOtgq-10" target="fiwsSdyqOs6rsyfke5sV-38" edge="1">
          <mxGeometry width="50" height="50" relative="1" as="geometry">
            <mxPoint x="-1050" y="-480" as="sourcePoint" />
            <mxPoint x="-1000" y="-530" as="targetPoint" />
          </mxGeometry>
        </mxCell>
        <mxCell id="69urwu36Ni8ePFmsJxC6-6" value="System&lt;br&gt;Maintenance&lt;br&gt;done" style="edgeLabel;html=1;align=center;verticalAlign=middle;resizable=0;points=[];" vertex="1" connectable="0" parent="6iGNeCmWqQAIdZ_xOtgq-15">
          <mxGeometry x="0.0702" y="1" relative="1" as="geometry">
            <mxPoint x="28" y="11" as="offset" />
          </mxGeometry>
        </mxCell>
        <mxCell id="6iGNeCmWqQAIdZ_xOtgq-20" value="Gcash User/&lt;br&gt;Customer" style="shape=umlActor;verticalLabelPosition=bottom;verticalAlign=top;html=1;outlineConnect=0;" parent="1" vertex="1">
          <mxGeometry x="-1410" y="-380" width="30" height="60" as="geometry" />
        </mxCell>
        <mxCell id="6iGNeCmWqQAIdZ_xOtgq-23" value="" style="endArrow=none;html=1;rounded=0;exitX=0.5;exitY=0.5;exitDx=0;exitDy=0;exitPerimeter=0;entryX=0;entryY=0.5;entryDx=0;entryDy=0;" parent="1" source="6iGNeCmWqQAIdZ_xOtgq-20" target="6iGNeCmWqQAIdZ_xOtgq-11" edge="1">
          <mxGeometry width="50" height="50" relative="1" as="geometry">
            <mxPoint x="-1330" y="-410" as="sourcePoint" />
            <mxPoint x="-1550" y="-350" as="targetPoint" />
          </mxGeometry>
        </mxCell>
        <mxCell id="69urwu36Ni8ePFmsJxC6-1" value="Tries to authenticate &lt;br&gt;while system is down." style="edgeLabel;html=1;align=center;verticalAlign=middle;resizable=0;points=[];" vertex="1" connectable="0" parent="6iGNeCmWqQAIdZ_xOtgq-23">
          <mxGeometry x="-0.0123" y="1" relative="1" as="geometry">
            <mxPoint as="offset" />
          </mxGeometry>
        </mxCell>
        <mxCell id="6iGNeCmWqQAIdZ_xOtgq-24" value="Authentication&lt;br&gt;Failed" style="ellipse;whiteSpace=wrap;html=1;" parent="1" vertex="1">
          <mxGeometry x="-1200" y="-180" width="120" height="80" as="geometry" />
        </mxCell>
        <mxCell id="6iGNeCmWqQAIdZ_xOtgq-26" value="Authentication&lt;br&gt;Success" style="ellipse;whiteSpace=wrap;html=1;" parent="1" vertex="1">
          <mxGeometry x="-950" y="-280" width="120" height="80" as="geometry" />
        </mxCell>
        <mxCell id="6iGNeCmWqQAIdZ_xOtgq-30" value="" style="endArrow=none;html=1;rounded=0;entryX=0.5;entryY=1;entryDx=0;entryDy=0;exitX=0.5;exitY=0;exitDx=0;exitDy=0;" parent="1" source="6iGNeCmWqQAIdZ_xOtgq-24" target="6iGNeCmWqQAIdZ_xOtgq-11" edge="1">
          <mxGeometry width="50" height="50" relative="1" as="geometry">
            <mxPoint x="-1280" y="-280" as="sourcePoint" />
            <mxPoint x="-1230" y="-330" as="targetPoint" />
          </mxGeometry>
        </mxCell>
        <mxCell id="69urwu36Ni8ePFmsJxC6-3" value="Authentication Failed&lt;br&gt;due to system is down" style="edgeLabel;html=1;align=center;verticalAlign=middle;resizable=0;points=[];" vertex="1" connectable="0" parent="6iGNeCmWqQAIdZ_xOtgq-30">
          <mxGeometry x="0.0352" relative="1" as="geometry">
            <mxPoint y="-16" as="offset" />
          </mxGeometry>
        </mxCell>
        <mxCell id="6iGNeCmWqQAIdZ_xOtgq-31" value="" style="endArrow=none;html=1;rounded=0;exitX=0.5;exitY=0.5;exitDx=0;exitDy=0;exitPerimeter=0;entryX=0;entryY=0.5;entryDx=0;entryDy=0;" parent="1" source="6iGNeCmWqQAIdZ_xOtgq-20" target="6iGNeCmWqQAIdZ_xOtgq-10" edge="1">
          <mxGeometry width="50" height="50" relative="1" as="geometry">
            <mxPoint x="-1280" y="-280" as="sourcePoint" />
            <mxPoint x="-1230" y="-330" as="targetPoint" />
          </mxGeometry>
        </mxCell>
        <mxCell id="69urwu36Ni8ePFmsJxC6-2" value="Tries to authenticate&lt;br&gt;while system is down" style="edgeLabel;html=1;align=center;verticalAlign=middle;resizable=0;points=[];" vertex="1" connectable="0" parent="6iGNeCmWqQAIdZ_xOtgq-31">
          <mxGeometry x="-0.0259" y="-4" relative="1" as="geometry">
            <mxPoint as="offset" />
          </mxGeometry>
        </mxCell>
        <mxCell id="6iGNeCmWqQAIdZ_xOtgq-32" value="" style="endArrow=none;html=1;rounded=0;entryX=0.5;entryY=1;entryDx=0;entryDy=0;exitX=0.5;exitY=0;exitDx=0;exitDy=0;" parent="1" source="6iGNeCmWqQAIdZ_xOtgq-24" target="6iGNeCmWqQAIdZ_xOtgq-10" edge="1">
          <mxGeometry width="50" height="50" relative="1" as="geometry">
            <mxPoint x="-1280" y="-370" as="sourcePoint" />
            <mxPoint x="-1230" y="-420" as="targetPoint" />
          </mxGeometry>
        </mxCell>
        <mxCell id="69urwu36Ni8ePFmsJxC6-4" value="Authentication Failed&lt;br&gt;due to wrong pin&lt;br&gt;although system is&lt;br&gt;up" style="edgeLabel;html=1;align=center;verticalAlign=middle;resizable=0;points=[];" vertex="1" connectable="0" parent="6iGNeCmWqQAIdZ_xOtgq-32">
          <mxGeometry x="0.0003" y="2" relative="1" as="geometry">
            <mxPoint as="offset" />
          </mxGeometry>
        </mxCell>
        <mxCell id="6iGNeCmWqQAIdZ_xOtgq-33" value="" style="endArrow=none;html=1;rounded=0;entryX=0.5;entryY=1;entryDx=0;entryDy=0;exitX=0.5;exitY=0;exitDx=0;exitDy=0;" parent="1" source="6iGNeCmWqQAIdZ_xOtgq-26" target="6iGNeCmWqQAIdZ_xOtgq-10" edge="1">
          <mxGeometry width="50" height="50" relative="1" as="geometry">
            <mxPoint x="-1280" y="-370" as="sourcePoint" />
            <mxPoint x="-1230" y="-420" as="targetPoint" />
          </mxGeometry>
        </mxCell>
        <mxCell id="69urwu36Ni8ePFmsJxC6-5" value="Correct Pin as well as System is Up" style="edgeLabel;html=1;align=center;verticalAlign=middle;resizable=0;points=[];" vertex="1" connectable="0" parent="6iGNeCmWqQAIdZ_xOtgq-33">
          <mxGeometry x="0.0235" relative="1" as="geometry">
            <mxPoint x="57" y="-5" as="offset" />
          </mxGeometry>
        </mxCell>
      </root>
    </mxGraphModel>
  </diagram>
</mxfile>
